<svg width="69" height="80" viewBox="0 0 69 80" fill="none" xmlns="http://www.w3.org/2000/svg">
<path fill-rule="evenodd" clip-rule="evenodd" d="M43.152 67.7933C48.3993 66.1567 52.9479 59.9736 53.2798 56.3141C53.6117 52.6546 51.9419 50.8482 50.3402 50.8219C48.7385 50.7955 47.676 51.9622 47.731 53.3367C47.7861 54.7112 48.8399 56.4195 52.1927 55.6671C51.4114 56.7181 50.2329 56.6435 49.5835 56.5966C48.9341 56.5498 46.3279 55.6583 46.3511 53.0205C46.3743 50.3828 48.5007 48.2924 51.1157 48.452C53.7306 48.6115 55.4033 51.1352 55.0424 56.1165C54.6815 61.0978 50.2735 66.4071 43.1448 67.7933M55.0236 46.1641C61.2493 56.9772 50.6199 71.0488 36.7016 68.8179C50.5098 71.8832 62.3132 56.7459 55.0308 46.1641H55.0236ZM55.1787 62.2528C59.4258 55.2265 58.2835 51.283 57.5225 46.5447C56.7615 41.8063 60.3592 35.3055 66.7516 35.4387C64.0497 36.1355 61.4362 38.1966 60.2027 41.9483C58.056 48.7316 62.7423 54.3511 55.1859 62.2528H55.1787ZM47.3904 68.2661C47.3904 68.2661 52.3898 65.5024 53.7683 64.6168C55.2115 63.7308 56.8629 63.2502 58.5517 63.2247C60.1462 63.2116 62.2755 63.7942 62.8771 65.5141C63.4786 67.2341 62.0914 69.0273 60.8071 69.5089C59.5229 69.9905 58.2473 69.421 58.1748 68.5237C58.1081 67.7084 58.4908 67.5313 58.8358 67.3966C59.1808 67.2619 59.6287 67.5152 59.6287 67.5152C59.6287 67.5152 58.7836 67.5005 58.7981 68.1387C58.8126 68.777 59.3489 68.8867 59.7461 68.9102C60.1433 68.9336 61.9204 68.3832 61.7421 66.6486C61.5638 64.914 59.4953 64.4177 57.9255 64.4177C56.3557 64.4177 55.0178 64.6842 52.9479 65.6927C50.8779 66.7013 47.3904 68.2661 47.3904 68.2661ZM42.9215 69.7416C47.3397 69.2015 50.2083 70.6462 50.1256 72.8054C50.043 74.9645 48.4848 74.9191 47.7571 74.9103C46.4613 74.8957 45.4872 73.8856 45.5031 73.0483C45.5104 72.6839 45.8728 72.3735 46.3482 72.4292C46.3931 73.2079 46.8729 73.6793 47.5426 73.6353C48.2123 73.5914 48.5718 73.3616 48.6181 72.4101C48.6645 71.4587 48.4993 70.1163 42.9215 69.7416ZM39.492 54.2253C44.0681 52.7234 46.9019 56.5439 46.6859 59.9883C46.47 63.4326 43.2158 66.9853 38.6266 68.0216C44.0565 64.6929 49.3342 57.0855 39.492 54.2296V54.2253ZM36.8727 67.48C36.8727 67.3615 37.9874 66.2285 37.7728 64.6578C37.5583 63.0871 37.4597 61.698 38.7121 61.4374C39.9645 61.1769 40.2588 62.184 40.2486 62.5807C40.2385 62.9774 40.6893 65.0603 36.8727 67.4844V67.48ZM37.8801 69.8221C42.0228 71.1761 43.5057 72.1569 43.2825 75.0669C46.0771 72.3282 41.9764 69.4064 37.8801 69.8294V69.8221ZM36.4509 70.0798C36.4509 70.0798 39.4267 71.1732 39.3499 72.3852C39.2731 73.5973 38.4295 73.8359 37.9395 73.8154C37.4496 73.7949 36.9031 73.4333 36.9031 72.5916C36.9031 71.75 37.6453 71.1805 36.4509 70.0871V70.0798ZM27.9784 40.8036L25.407 45.3282H27.9784V40.8036ZM35.6232 46.4012L34.8738 49.6596L38.6643 46.4305C38.7296 46.3372 38.764 46.2256 38.7629 46.1114C38.7653 45.9984 38.7266 45.8885 38.6541 45.8025C38.6225 45.7617 38.582 45.7287 38.5358 45.7061C38.4895 45.6835 38.4388 45.6719 38.3874 45.6722L38.4469 45.3531H42.0779C42.2982 45.3372 42.5174 45.3971 42.6998 45.5229C42.7635 45.5699 42.8154 45.6314 42.8514 45.7023C42.8874 45.7732 42.9064 45.8516 42.907 45.9313C42.9056 46.066 42.8748 46.1987 42.8166 46.3199C42.7585 46.4411 42.6745 46.5479 42.5708 46.6325L38.1686 50.4062L39.5905 56.2775C39.6327 56.411 39.7035 56.5334 39.7978 56.6361C39.9103 56.7139 40.0463 56.7491 40.1819 56.7357H40.8531L40.5632 58.0912C40.4718 58.5025 40.3559 58.7792 40.2182 58.9182C40.0805 59.0573 39.8399 59.1275 39.4934 59.1275H37.9526C37.8208 59.1374 37.6885 59.1174 37.5654 59.069C37.4423 59.0207 37.3314 58.9451 37.2409 58.8479C37.0554 58.5997 36.9276 58.3126 36.8669 58.0077L35.4652 52.3106L34.0041 53.4699L33.0373 57.7486C33.0019 57.9128 32.982 58.0799 32.9778 58.2478C32.9778 58.583 33.1228 58.7689 33.4315 58.8084L33.3721 59.1275H30.0382C29.6439 59.1275 29.4468 58.9416 29.4468 58.5698L29.5251 58.0677L30.5905 53.4699L30.0382 52.5916L26.1694 57.8511C25.9228 58.226 25.6234 58.5628 25.2809 58.8509C25.0292 59.038 24.7236 59.1362 24.4112 59.1305H22.9109C22.4369 59.1305 22.2007 58.9636 22.2007 58.6328C22.2054 58.5107 22.2253 58.3897 22.2601 58.2727L22.6152 56.7386H23.0298C23.2216 56.7524 23.4125 56.7009 23.5719 56.5922C23.812 56.3595 24.0272 56.1019 24.214 55.8237L28.0089 50.7136C27.9877 50.6449 27.9774 50.5733 27.9784 50.5013V49.3405L26.9217 47.6454H24.1561L22.8935 49.9334C22.8197 50.0583 22.7704 50.1965 22.7486 50.3403C22.7486 50.6111 22.8674 50.7458 23.1066 50.7458L23.0269 51.0678H20.1612C19.9839 51.0767 19.8088 51.0252 19.664 50.9214C19.6089 50.8832 19.5638 50.8321 19.5325 50.7724C19.5012 50.7128 19.4847 50.6464 19.4843 50.5789C19.4747 50.412 19.5263 50.2473 19.6292 50.1163L26.4492 38.3151C26.5191 38.1995 26.5599 38.0683 26.5681 37.9331C26.5681 37.6242 26.3898 37.469 26.0303 37.469L26.11 37.147H30.0382C30.3015 37.1429 30.5579 37.232 30.763 37.3988C30.8616 37.4758 30.9409 37.5751 30.9945 37.6888C31.0482 37.8025 31.0746 37.9272 31.0717 38.0531L31.3355 49.4459L31.4616 49.6596L32.1125 46.732C32.1478 46.5679 32.1677 46.4008 32.1719 46.2329C32.1719 45.902 32.0197 45.7147 31.7182 45.6752L31.7762 45.356H35.1101C35.5043 45.356 35.7015 45.5424 35.7015 45.9152L35.6232 46.4012ZM34.4491 24.952C35.6841 29.3317 37.4235 34.2296 40.9342 37.2553C43.239 39.2417 45.4756 40.0512 46.886 38.8977C48.6065 37.491 46.7207 34.78 44.558 33.6983C42.6476 32.741 40.2486 31.5787 39.4094 31.0005C38.5701 30.4223 36.2045 29.1224 34.4491 24.9608V24.952ZM50.1793 26.3968C50.1793 26.3968 49.2139 27.3951 49.2806 28.6203C49.3473 29.8455 49.5299 30.7063 49.1356 32.315C48.7414 33.9237 47.9586 35.0406 48.0224 36.4136C48.0862 37.7867 48.3804 39.107 49.7473 40.06C51.1142 41.0129 52.2506 40.1581 52.6464 39.3032C53.0421 38.4483 53.7205 37.3007 52.8754 35.6261C52.0303 33.9515 50.9446 32.6765 50.6518 31.5275C50.359 30.3784 49.843 28.5662 50.1793 26.4056V26.3968ZM54.1524 32.0149C54.1524 32.0149 53.5103 33.0908 53.706 34.7317C53.9016 36.3727 53.9799 36.6098 53.9611 37.6769C53.9422 38.744 52.7667 40.1478 52.7667 41.6702C52.7667 43.1925 53.2102 45.0355 54.8772 45.0355C56.5441 45.0355 57.2645 42.4006 57.2848 41.616C57.3051 40.8314 57.1283 39.5799 56.031 37.4061C54.9337 35.2324 54.2278 34.0994 54.1524 32.0149ZM41.1357 38.2932C41.1357 38.2932 43.6985 43.6595 45.1277 45.539C46.5569 47.4185 48.824 48.2895 50.6852 47.5269C52.5463 46.7642 52.3912 45.3956 52.4652 44.7456C52.5391 44.0957 51.8709 42.3216 50.3344 41.9132C48.7979 41.5048 47.3672 42.08 41.1357 38.2932ZM31.5196 2.54553C32.1777 6.61053 32.5952 11.8158 33.6808 14.7156C34.7665 17.6154 36.1958 19.6238 37.8149 19.0558C39.434 18.4879 39.2282 15.8837 38.0729 13.0074C36.9176 10.131 32.772 7.68642 31.5196 2.54553ZM38.8745 9.29661C38.8745 9.29661 39.8674 12.902 39.721 15.6539C39.5746 18.4059 38.9049 18.6957 39.0948 20.7451C39.2847 22.7944 40.8067 25.015 42.5548 24.8715C44.3029 24.7281 44.6204 21.9922 44.4682 20.1507C44.2304 17.2524 42.5505 16.4268 41.1821 14.4419C40.0529 12.8054 39.8152 10.4018 38.8745 9.29661ZM45.6872 16.6332C45.6872 16.6332 45.1886 16.6698 45.0958 19.2315C45.003 21.7931 45.2132 23.2408 44.0377 25.6371C42.8621 28.0333 42.5881 29.1005 42.9578 30.4516C43.3274 31.8027 44.532 33.2987 46.3395 33.489C48.1471 33.6793 48.8298 31.8788 48.7602 30.2144C48.6906 28.5501 47.5151 27.6059 46.9976 26.1582C46.4801 24.7105 46.0351 22.6948 46.0119 21.272C45.9887 19.8492 45.9467 18.1409 45.693 16.6376L45.6872 16.6332ZM32.8445 16.0521C33.5301 18.5918 33.9606 20.2971 34.3201 21.5999C35.1739 24.6915 36.5393 27.8284 39.1513 29.8192C39.95 30.4281 40.7009 30.7165 41.2068 30.4194C42.4533 29.6874 42.4809 27.5064 41.8489 26.2373C41.2169 24.9681 39.6123 23.8454 37.6163 22.2045C35.6203 20.5635 34.6593 19.473 32.8445 16.0521ZM34.381 72.6253C33.5335 72.7146 32.6819 72.7596 31.8298 72.76C31.2384 72.76 30.6528 72.7366 30.0715 72.6956V72.7102L27.3363 78.703L24.1474 78.0853L23.8111 71.3928C21.6895 70.6445 19.6815 69.6015 17.8449 68.2939L17.8362 68.3041L12.4497 72.0222L10.0305 69.8338L13.1557 63.9186C11.718 62.1753 10.5262 60.2393 9.61449 58.1658H9.60579L3.08296 58.5508L2.12772 55.4285L7.81998 51.9739C7.47965 49.7315 7.44648 47.4524 7.72142 45.2009H7.70837L1.92334 42.1415L2.69448 38.9563H9.33038C10.18 36.8561 11.3148 34.8855 12.702 33.101L12.6904 33.0923L9.29269 27.4698L11.58 25.135L17.2694 28.5896C19.0673 27.2287 21.0435 26.1261 23.1414 25.3136V25.3048L23.095 18.7104L26.2419 17.9038L29.3598 23.822C30.182 23.7379 31.0078 23.6959 31.8342 23.6961L34.1838 31.1527C31.7466 30.8113 29.2651 31.0059 26.9094 31.7234C24.5537 32.4409 22.3794 33.6642 20.5355 35.3095C18.6917 36.9548 17.2219 38.9833 16.2268 41.2558C15.2317 43.5283 14.7349 45.9912 14.7704 48.4758C14.8059 50.9603 15.3729 53.4077 16.4325 55.6503C17.4922 57.8929 19.0193 59.8776 20.9095 61.4685C22.7996 63.0594 25.0079 64.2188 27.3832 64.8673C29.7584 65.5158 32.2445 65.6381 34.6709 65.2258L34.381 72.6253Z" fill="#0D0802"/>
<path fill-rule="evenodd" clip-rule="evenodd" d="M34.0494 72.356C33.2019 72.446 32.3504 72.4909 31.4983 72.4907C30.9049 72.4907 30.3183 72.4692 29.7385 72.4263V72.4409L27.0105 78.4338L23.8216 77.8146L23.4853 71.122C21.3631 70.3717 19.3546 69.3268 17.5176 68.0173L17.5104 68.029L12.1167 71.7529L9.69749 69.566L12.8227 63.6478C11.3852 61.9051 10.194 59.9696 9.28293 57.8965H9.27278L2.74995 58.283L1.79037 55.149L7.48263 51.7017C7.14363 49.4591 7.11096 47.1802 7.38551 44.9287H7.37681L1.59033 41.8693L2.36582 38.6855H9.00172C9.8504 36.5852 10.9847 34.6145 12.3719 32.8303L12.3617 32.8215L8.95969 27.1946L11.247 24.8672L16.9378 28.3203C18.7351 26.9596 20.7108 25.8575 22.8084 25.0458V25.0355L22.7606 18.4411L25.9089 17.6345L29.0268 23.5527C29.849 23.4686 30.6748 23.4265 31.5012 23.4268L33.8494 30.8834C31.4122 30.5421 28.9307 30.7369 26.575 31.4545C24.2193 32.1721 22.0451 33.3955 20.2013 35.0409C18.3575 36.6863 16.8878 38.7147 15.8928 40.9873C14.8979 43.2599 14.4012 45.7228 14.4368 48.2074C14.4724 50.6919 15.0395 53.1393 16.0992 55.3818C17.1589 57.6243 18.6862 59.609 20.5763 61.1998C22.4665 62.7906 24.6749 63.9499 27.0502 64.5983C29.4254 65.2468 31.9115 65.3689 34.3379 64.9565L34.0494 72.356Z" fill="#17A078"/>
<path d="M27.6452 40.5431L25.0737 45.0546H27.6452V40.5431ZM31.5734 50.7898H28.3511C27.8858 50.7898 27.6524 50.6024 27.6524 50.2233V47.3776H23.8243L22.5603 49.6656C22.4864 49.7905 22.4372 49.9287 22.4153 50.0725C22.4153 50.3448 22.5356 50.478 22.7748 50.478L22.6951 50.8H19.8294C19.6516 50.809 19.476 50.7575 19.3307 50.6536C19.2757 50.6154 19.2305 50.5643 19.1992 50.5047C19.168 50.445 19.1514 50.3786 19.151 50.3111C19.1416 50.1442 19.1931 49.9796 19.296 49.8486L26.1087 38.0488C26.179 37.9327 26.2203 37.8011 26.229 37.6653C26.229 37.3559 26.0493 37.2017 25.6898 37.2027L25.7695 36.8807H29.6977C29.9611 36.8758 30.2178 36.965 30.4225 37.1325C30.5218 37.2089 30.6017 37.3081 30.6556 37.4219C30.7096 37.5356 30.736 37.6607 30.7327 37.7868L31.0153 49.8661C31.0129 49.946 31.0267 50.0255 31.0559 50.0997C31.0851 50.174 31.129 50.2415 31.1849 50.2979C31.2443 50.3558 31.3148 50.4009 31.3921 50.4303C31.4694 50.4598 31.5518 50.473 31.6343 50.4692L31.5734 50.7898Z" fill="#17A078"/>
<path d="M35.2902 46.1407L34.5408 49.3903L38.3299 46.1612C38.3959 46.0683 38.4305 45.9564 38.4284 45.8421C38.4309 45.7291 38.3922 45.6192 38.3197 45.5332C38.288 45.4925 38.2474 45.4598 38.2012 45.4375C38.155 45.4151 38.1043 45.4038 38.053 45.4044L38.1124 45.0853H41.7449C41.9651 45.0686 42.1844 45.1279 42.3668 45.2536C42.4304 45.301 42.4823 45.3627 42.5182 45.4339C42.5542 45.505 42.5733 45.5836 42.5741 45.6635C42.5727 45.798 42.5419 45.9305 42.4838 46.0515C42.4256 46.1725 42.3416 46.2789 42.2378 46.3632L37.837 50.1383L39.2576 56.0082C39.3 56.1416 39.3707 56.264 39.4648 56.3668C39.5777 56.4449 39.7143 56.4802 39.8504 56.4664H40.5273L40.2374 57.8219C40.1461 58.2347 40.0301 58.5099 39.8924 58.6489C39.7547 58.788 39.5141 58.8582 39.1677 58.8582H37.6196C37.4882 58.8683 37.3562 58.8485 37.2333 58.8004C37.1104 58.7523 36.9997 58.677 36.9093 58.5801C36.7228 58.3318 36.5944 58.044 36.5339 57.7384L35.1322 52.0413L33.6711 53.2006L32.6999 57.4779C32.6646 57.642 32.6448 57.8091 32.6405 57.977C32.6405 58.3122 32.7854 58.4981 33.0956 58.5377L33.0362 58.8568H29.7023C29.3081 58.8568 29.1109 58.6709 29.1109 58.2991L29.1892 57.797L30.256 53.1992L29.7023 52.3209L25.8336 57.5789C25.5864 57.9534 25.2877 58.2906 24.9465 58.5801C24.6944 58.7662 24.3889 58.8639 24.0767 58.8582H22.5794C22.1049 58.8582 21.8677 58.6923 21.8677 58.3605C21.8724 58.2389 21.8924 58.1184 21.9271 58.0019L22.2822 56.4664H22.6982C22.8905 56.4797 23.0817 56.4283 23.2418 56.32C23.4806 56.087 23.6953 55.83 23.8825 55.553L28.1267 49.8441L25.8365 46.17C25.7336 45.9744 25.6148 45.7879 25.4813 45.6122C25.417 45.5468 25.3401 45.4954 25.2553 45.4612C25.1706 45.4269 25.0797 45.4106 24.9885 45.4132L25.0479 45.0941H27.7121C28.0043 45.0586 28.2997 45.1238 28.5505 45.2793C28.8013 45.4347 28.9926 45.6712 29.0935 45.9504L31.1229 49.3991L31.7737 46.4715C31.809 46.3079 31.8289 46.1412 31.8331 45.9738C31.8331 45.642 31.6819 45.4561 31.3794 45.4161L31.4388 45.097H34.7727C35.167 45.097 35.3656 45.2829 35.3656 45.6547L35.2902 46.1407Z" fill="#FFCC04"/>
<path fill-rule="evenodd" clip-rule="evenodd" d="M42.8186 67.524C48.0674 65.8889 52.6145 59.7043 52.9479 56.0463C53.2813 52.3882 51.6085 50.579 50.0068 50.5526C48.4051 50.5263 47.3426 51.6929 47.3977 53.0689C47.4528 54.4449 48.5066 56.1502 51.8593 55.3978C51.078 56.4503 49.8981 56.3742 49.2502 56.3273C48.6022 56.2805 45.9945 55.3905 46.0192 52.7512C46.0438 50.112 48.1674 48.0232 50.7823 48.1827C53.3972 48.3423 55.07 50.8659 54.7091 55.8472C54.3481 60.8285 49.9488 66.1392 42.8186 67.524ZM54.7047 45.8962C60.9289 56.7094 50.2996 70.781 36.3813 68.5501C50.1764 71.6139 61.9798 56.4722 54.6989 45.8962H54.7047ZM54.8584 61.9835C59.1054 54.9572 57.9632 51.0137 57.2022 46.2768C56.4412 41.54 60.0389 35.0363 66.4313 35.1695C63.7193 35.8677 61.1101 37.9287 59.8766 41.679C57.7226 48.4623 62.4147 54.0819 54.8526 61.9835H54.8584ZM47.0628 67.9968C47.0628 67.9968 52.0622 65.2331 53.4407 64.349C54.8834 63.4614 56.535 62.9803 58.2241 62.9555C59.8114 62.9423 61.9465 63.5249 62.5495 65.2448C63.1525 66.9648 61.7624 68.758 60.4796 69.241C59.1968 69.7241 57.9183 69.1517 57.8458 68.2544C57.7806 67.4391 58.1618 67.262 58.5068 67.1288C58.8518 66.9956 59.2997 67.2473 59.2997 67.2473C59.2997 67.2473 58.4561 67.2327 58.4706 67.8694C58.4851 68.5062 59.0214 68.6189 59.4171 68.6409C59.8128 68.6628 61.5914 68.1139 61.4131 66.3793C61.2348 64.6447 59.1678 64.1485 57.5965 64.1485C56.0252 64.1485 54.6902 64.4149 52.6203 65.4234C50.5504 66.432 47.057 67.9968 47.057 67.9968H47.0628ZM42.5954 69.4723C47.0121 68.9322 49.8807 70.377 49.7981 72.5361C49.7155 74.6952 48.1587 74.6498 47.4296 74.641C46.1337 74.6278 45.1611 73.6164 45.177 72.7805C45.177 72.4146 45.5452 72.1057 46.0206 72.1613C46.067 72.9386 46.5454 73.4114 47.215 73.3661C47.8847 73.3207 48.2457 73.0923 48.292 72.1408C48.3384 71.1894 48.1688 69.8485 42.5896 69.4723H42.5954ZM39.1586 53.9647C43.7362 52.4629 46.5686 56.2834 46.3526 59.7278C46.1366 63.1721 42.8824 66.7262 38.2933 67.7626C43.7231 64.4237 49.0008 56.8177 39.1586 53.9647ZM36.5393 67.2195C36.5393 67.101 37.6555 65.968 37.4395 64.3988C37.2235 62.8296 37.1264 61.4375 38.3788 61.1784C39.6312 60.9193 39.9254 61.9235 39.9153 62.3202C39.9051 62.7169 40.3559 64.7969 36.5393 67.2151V67.2195ZM37.5467 69.5616C41.6895 70.9171 43.1723 71.8964 42.9491 74.8079C45.7452 72.0589 41.6373 69.1371 37.5467 69.5602V69.5616ZM36.1175 69.8207C36.1175 69.8207 39.0934 70.9127 39.0166 72.1247C38.9397 73.3368 38.0961 73.5754 37.6076 73.5549C37.1191 73.5344 36.5698 73.1582 36.5698 72.3238C36.5698 71.4894 37.3119 70.9112 36.1175 69.8192V69.8207ZM34.1172 24.6886C35.3507 29.0668 37.0916 33.9647 40.6023 36.9846C42.9056 38.971 45.1437 39.7819 46.5526 38.6284C48.2732 37.2203 46.3874 34.5093 44.2261 33.4275C42.3142 32.4717 39.9153 31.3079 39.076 30.7312C38.2367 30.1545 35.8711 28.8531 34.1172 24.6886ZM49.8459 26.1334C49.8459 26.1334 48.8805 27.1302 48.9487 28.3554C49.0168 29.5806 49.1965 30.4414 48.8037 32.0501C48.4109 33.6588 47.6267 34.7757 47.6919 36.1487C47.7572 37.5218 48.05 38.8422 49.4154 39.7951C50.7809 40.748 51.9202 39.8932 52.3144 39.0398C52.7087 38.1864 53.3871 37.0358 52.542 35.3612C51.697 33.6866 50.6113 32.4131 50.3185 31.2626C50.0257 30.112 49.514 28.2969 49.8459 26.1378V26.1334ZM53.8118 31.7412C53.8118 31.7412 53.1711 32.8171 53.3668 34.458C53.5625 36.099 53.6408 36.3361 53.6205 37.4032C53.6002 38.4703 52.4261 39.8741 52.4261 41.3965C52.4261 42.9189 52.8769 44.7633 54.5409 44.7633C56.205 44.7633 56.9297 42.1284 56.9486 41.3423C56.9674 40.5563 56.792 39.3076 55.6962 37.1324C54.6003 34.9572 53.8944 33.8301 53.8118 31.7456V31.7412ZM40.8038 38.0239C40.8038 38.0239 43.3651 43.3902 44.7958 45.2697C46.2265 47.1493 48.4906 48.0217 50.3518 47.259C52.213 46.4964 52.0593 45.1263 52.1318 44.4778C52.2043 43.8293 51.539 42.0523 50.001 41.6439C48.4631 41.2355 47.0339 41.8151 40.8038 38.0239Z" fill="#FFCC04"/>
<path fill-rule="evenodd" clip-rule="evenodd" d="M31.1865 2.27771C31.8446 6.34124 32.265 11.5465 33.3478 14.4419C34.4305 17.3374 35.8627 19.3501 37.4818 18.7836C39.1009 18.2171 38.8965 15.6101 37.7398 12.7337C36.5831 9.8573 32.4389 7.41567 31.1865 2.27771ZM38.5414 9.02586C38.5414 9.02586 39.5343 12.6312 39.3879 15.3817C39.2415 18.1322 38.5718 18.4235 38.7617 20.4743C38.9516 22.5251 40.4736 24.7428 42.2217 24.5993C43.9698 24.4559 44.2873 21.72 44.1365 19.8785C43.8974 16.9802 42.2174 16.1546 40.8505 14.1697C39.7198 12.539 39.4821 10.1325 38.5414 9.02586ZM45.3614 16.3625C45.3614 16.3625 44.8627 16.3976 44.7685 18.9593C44.6743 21.5209 44.8859 22.9686 43.7118 25.3649C42.5377 27.7611 42.2551 28.8282 42.6305 30.1808C43.0059 31.5334 44.2047 33.0264 46.0137 33.2167C47.8227 33.407 48.5025 31.6066 48.4329 29.9437C48.3633 28.2808 47.195 27.3366 46.6703 25.8889C46.1456 24.4412 45.7078 22.4256 45.6846 21.0027C45.6614 19.5799 45.6136 17.8716 45.3614 16.3654V16.3625ZM32.5157 15.7769C33.1999 18.3166 33.6304 20.022 33.9899 21.3248C34.8437 24.4163 36.2091 27.5547 38.8211 29.5455C39.6198 30.1545 40.3707 30.4414 40.878 30.1457C42.1231 29.4138 42.1507 27.2327 41.5187 25.9636C40.8867 24.6945 39.2821 23.5703 37.2861 21.9293C35.2901 20.2884 34.3262 19.2037 32.5157 15.7813V15.7769Z" fill="#FFCC04"/>
</svg>
